<svg id="Layer_1" data-name="Layer 1" xmlns="http://www.w3.org/2000/svg" viewBox="0 0 875.46 836.82"><defs><style>.cls-1{fill:#231f20;}.cls-2{fill:#a3819a;}.cls-3{fill:#5a75a9;}.cls-4{fill:#63bedd;}.cls-5{fill:#fefefe;}.cls-6{fill:#1b4580;}.cls-7{fill:#67bde5;}.cls-8{fill:#567ca7;}.cls-9{fill:#f5a5a9;}.cls-10{fill:#7f1517;}.cls-11{fill:#5a74a9;}.cls-12{fill:#7e7e7e;}.cls-13{fill:#fdfdfd;}.cls-14{fill:#fefdfd;}.cls-15{fill:#7c7c7c;}.cls-16{fill:#fcfcfc;}.cls-17{fill:#fbfbfb;}.cls-18{fill:#f5f5f5;}.cls-19{fill:#231f21;}.cls-20{fill:#184785;}</style></defs><title>7</title><path class="cls-1" d="M92.68,308.08c2.27-7.26,2.42-14.89,3.93-22.3,2.25-11.07,4.69-22.07,9.1-32.53a74.53,74.53,0,0,1,4-8c8.59-14.9,19.39-17.07,32.66-6.17,12.86,10.57,22.22,24.19,31.47,37.82a629.38,629.38,0,0,1,42.59,72.51c4.83,9.69,13,15,21.28,22.34-.41-3.9-.6-6.65-1-9.37-.74-4.84.86-8,5.34-10.56,15.84-9,30.13-20.08,41.76-34.29,8.36-10.22,14.38-21.51,15.58-34.93.36-4,3.18-5.38,6.55-6.47,22.76-7.38,44-17.76,62.9-32.57,17-13.3,30.16-29.37,36.41-50.47,1.57-5.3,4.73-5.9,9.41-2.16,11.5,9.19,23.74,17,38.22,20.68a4.75,4.75,0,0,0,1.44.41c9.84-.8,14.55,5.61,19.31,12.84,10.61,16.08,21.4,32,29,49.87.28,0,.76.08.87-.08,11.68-17,22.23-34.6,28.68-54.35a42.3,42.3,0,0,0,2.19-12.2c.11-4.9,2-6.59,6.92-5.91,11.8,1.63,23.56,1.8,35.16-1.14q27-6.83,39.1-32c3.55-7.38,7-7.66,11.67-1.06,10,14.2,21,27.58,36.08,36.74,16.43,9.94,28.18,8.63,42.26-4.46,4.13-3.84,7.48-3.23,10.14,2.06,7.17,14.26,10.62,29.64,13,45.26a300.21,300.21,0,0,1,3.27,37.59c3.35-5.07,4.85-10.18,6.61-15.09a250.63,250.63,0,0,0,11-43.86c.86-5.22-.12-10.29-1-15.35-9.22-52.75-1.39-103.11,21-151.45a3.63,3.63,0,0,0,.14-1h1c6.78,6.73,13.8,13.23,20.3,20.22,40.81,43.8,69.62,94,81,153.34,3.82,19.85,4.4,39.95,4.51,60.07.13,24.44,0,48.88-3,73.2A115.79,115.79,0,0,1,867.78,391c-4,11-11.3,19-22.15,23.6-2.83,1.2-4.67,1.87-2.57,5.73,2.68,4.91,2.16,10.62,2,16.13-.12,3.72-1.21,7.53.57,11.43,3-1.49,3.89-4.22,5.07-6.69,3.06-6.43,5.55-13.13,9.58-19.09,3.88-5.73,8.89-9,15.92-8,2.9.39,4-.88,5.32-3.09,9.38-15.54,23.34-23,41.41-23.17,3.12,0,5.8.47,6.38,4,.52,3.14-1.44,4.76-4.14,6-15.31,6.85-25.06,18.05-27.45,35.09-.91,6.51-5.52,10.8-10,15-2.93,2.72-6,5.31-7.5,9.17-.73,1.92-1,4.28.78,5.54,1.55,1.12,3-.75,4.26-1.66,5.2-3.71,9.32-8.53,13.35-13.39,5.23-6.32,11.85-9,19.87-7.74a14.57,14.57,0,0,0,10.29-2.21c8.19-4.9,16.94-8.39,26.69-8.64a15.52,15.52,0,0,1,3.48.11c3.62.73,8.46.17,9.18,5.11.77,5.27-4.18,5.48-7.6,6.82-5.09,2-10.25,3.85-15.25,6.05-4.48,2-6.81,5.15-6,10.55,1.17,7.35-2.46,12.8-8.15,17.05-4.31,3.22-9.3,5.08-14.23,7.05s-9.84,4-13.76,7.81c-2.61,2.51-2.1,4.49,1.34,5.23,4.37.94,8.82,1.6,13.26,2.12,5.65.67,10.89,2,13.77,7.51.78,1.5,2.17,1.27,3.29,1.84,8.7,4.41,16.48,10,22.19,18.05a18.74,18.74,0,0,1,3.64,9.67c.15,2.26.09,4.46-2.17,5.67s-4.44.68-6.42-1a65.93,65.93,0,0,0-17.45-10.45c-1.24-.53-2.4-1.48-4,0-10,9.5-21.24,9.58-33.09,3.87a6.92,6.92,0,0,0-1.56-.22,44.55,44.55,0,0,0,6.66,12.59,89.44,89.44,0,0,0,16.63,17.8c1.21,1,2.76,1.61,1.12,3.79-13.77,18.25-14.59,38.95-11.17,60.4A114.15,114.15,0,0,0,917,654c1.5,3.46,0,3.48-2.62,3.4-14.39-.45-28.55.8-42.13,6-2.47.95-4.94,1.95-7.32,3.11-17.06,8.26-17.78,9.43-17.78,28.08q0,29.21,0,58.41c0,2.34.14,4.42,1.75,6.5,12.93,16.64,18.78,36.4,24.46,56.22,1.12,3.91-2.13,3.12-3.8,3.37a124.37,124.37,0,0,0-44.94,15.35c-14.55,8.46-27.11,19.15-36,34-1.57-1.2-1.7-2.86-2.26-4.27-6.74-17-18.81-23.36-36.08-17-7.65,2.8-11.51,1.87-16.17-4.63-5.74-8-14.35-13.23-22.55-18.67-2.34-1.56-4-.48-5.91.42-24.13,11.17-48.76,20.89-74.88,26.44a113,113,0,0,1-29.21,2.66,8.28,8.28,0,0,0-7,2.83c-6.73,6.92-13.44,13.91-18.91,21.85-3.82,5.55-8.07,6.67-14.47,5.11-28.19-6.9-55.68-5.31-81.92,8.12-1,.53-2,1.13-3,1.71-5.81,3.36-8.44,3.08-13.19-1.71A94.47,94.47,0,0,0,410,864c-22.54-3.7-44.36-.46-65.79,6.58-9.21,3-10.06,2.5-10.34-6.93-.46-15.45-5.08-28.73-19.49-36.86-3.66-2.07-3-5-1.47-8.17,6-12.38,11.94-24.81,18-37.16a7.24,7.24,0,0,0,.59-6.05c-2.32-6.89-4.41-13.86-6.38-20.85-.74-2.65-2.28-3.61-4.82-3.95-22-3-42.29,1.23-60.21,14.87-1.64,1.25-3.21,2.5-5.39,1.59s-2.76-2.74-2.69-4.89c.68-22.66-14.63-34.43-34.82-38.65-2.92-.61-5.94-.73-8.88-1.27-4.11-.77-5.38-4.08-3-7.37,8.53-11.55,11-20.81,9.68-36.13-8.11,4.54-16.52,6.84-25.8,4.9-2.7-.57-3.84,2.25-5.1,4.1-2.53,3.7-4.59,7.71-8,10.8s-5.56,2.78-7.54-1.48c-6-12.82-3.79-22.78,7.21-32.07,2.37-2,3.93-3.82,4-7.29.06-5.65,2.92-9.59,8.83-11.11a71.4,71.4,0,0,0,11.19-4.09c2.58-1.15,5-2.8,4.73-6.3s-3-4.63-5.71-5.42c-7.38-2.2-15.07-2.44-22.67-3.18a67.06,67.06,0,0,1-8.39-1.08c-3.86-.88-7.62-2.81-8.58-6.78-1.23-5.12-4.73-5.77-8.82-6.13-8.3-.75-16.17,1.13-23.91,3.84-1.87.65-3.93,1.7-5.5-.28s-.42-3.74.48-5.57C127.36,599.53,141,593,155.86,595a10.58,10.58,0,0,1,1.47.28c5.42,1.49,10,1.2,15.11-2.48,8.06-5.78,17.84-3.61,26.05,4.51,3.35,3.31,6.92,5,11.59,4.3,1.85-.29,4-.64,4.6-2.48s-1.1-3.29-2.49-4.48c-2.56-2.18-5.63-3.5-8.64-4.89-3.61-1.67-7.26-3.27-10.8-5.08s-7.4-4.43-7.85-8.51c-1.22-11.17-9.7-15.59-17.8-20.35-3.68-2.16-7.88-3.44-11.86-5.08-1.62-.67-3.92-.67-3.86-3.14.06-2.28,1.8-3.24,3.76-4.1,4.83-2.12,10-2.1,15.76-2.6A185.66,185.66,0,0,1,153,521c-22.2-29.2-35.18-62.58-44.22-97.73-3.76-14.65-6.44-29.51-8.83-44.44-1.16-7.24.95-12.94,6.87-17.49,6.59-5.07,12.89-10.54,17.52-17.58,3.36-5.1,3-7.09-1.78-10.92-5.78-4.63-12.57-7.4-19.48-9.72-4.22-1.42-7.83-3.34-10.35-7.06Z" transform="translate(-92.68 -58.44)"/><path class="cls-2" d="M240.84,568c-5.7-2.47-9.35-5.93-13.39-8.8-6.95-5-14.19-9.3-22.72-10.92-1.94-.37-4.18-1-5.9-.42-6.6,2.28-11.11-1.51-15.67-5-19.52-14.78-33.22-34.26-44.34-55.71-16.13-31.12-25.35-64.46-31.16-98.84-3.42-20.26-4-16.07,10-28.17,4.91-4.24,9.52-8.86,12.7-14.62,3.61-6.55,2.93-10.89-2.5-16.06-5.91-5.64-13.35-8.64-20.82-11.43-9.86-3.68-8.44-2.87-7.4-11.39,2.18-17.84,5.2-35.48,12.13-52.21A38.48,38.48,0,0,1,119,242.63c4.85-5.17,9.08-5.82,15.05-2,8.73,5.51,15.25,13.34,21.42,21.38,21.84,28.46,38.85,59.88,56.4,91,14.08,25,21.86,52.31,31.69,78.89,15.78,42.64,33.67,84.22,59.78,121.77a313.58,313.58,0,0,0,27.33,33.84c-12.95-4-26.16-4-39.39-3.84-4.4,0-6.37-3-7.66-6.69-2.58-7.41-3.22-15.24-4.92-22.84-2.13-9.45-4.12-18.83-12.06-25.61-1.63-1.39-2.21-4-3.24-6.1a54.78,54.78,0,0,0-12-16.42,26.84,26.84,0,0,0-12.61-6.71c-2.45-.54-5.12-1-7,1.25s-.47,4.4.49,6.52c2.52,5.61,5,11.23,8.6,16.28,1.67,2.36,2,3.86-.64,6.16-6.11,5.41-6.47,12.71-5.31,20.24C235.92,555.78,239.24,561.13,240.84,568Z" transform="translate(-92.68 -58.44)"/><path class="cls-2" d="M772.17,68.6A317.6,317.6,0,0,1,822.5,128c21.2,32.08,36.41,66.68,43.58,104.64,3.87,20.53,4.36,41.28,4.52,62.06.18,23.45-.17,46.89-3,70.2-1.23,10.07-3.24,20-7.87,29.19-4.87,9.74-13.51,14.55-23.27,17.33-3.15.9-7.14-.71-10.61-1.65-1.78-.47-1-2.61-1-4-.07-9.32,0-18.64-.06-28,0-1.91.68-4.22-1.67-5.31s-4.06.65-5.73,2c-10.55,8.37-15.44,24.13-11.11,37.93,1.58,5,1.23,8.48-2.57,12.41-5.7,5.88-7.27,13.18-4.81,21.26,1.93,6.35,3.51,12.8,5.22,19.22,1.66,6.22.5,11.15-5.27,15.11-9.6,6.59-19.21,13.15-29.09,19.3-.78.49-1.55,1.33-3,.68,2-6,4.26-12,5.88-18.21,5.67-21.49,7.78-43.46,8.12-65.61.89-56.12-6-111.38-18.34-166.06-6.91-30.67-12.77-61.53-11.44-93.21C752.24,126.59,759.9,97.35,772.17,68.6Z" transform="translate(-92.68 -58.44)"/><path class="cls-3" d="M164.91,617.29c8.47-4.12,9.05-5.56,7-14.76-.44-2,.72-2.73,1.88-3.64,6-4.79,13.48-4.16,19.67,2.22,4.9,5,10.46,7.46,17.44,6.51,4.14-.56,8.05-1.91,9.46-6.2s-.34-8.09-3.8-11.09c-4.1-3.56-9.18-5.24-13.94-7.58-4.35-2.13-9.42-3.37-12-8.31,8.44-2.47,11.08-7.73,8.17-17-1.13-3.59.08-4,3-3.58,7.78,1.15,14.36,5,20.71,9.33,4.8,3.28,9.44,6.81,14.35,9.91,2.35,1.48,5.2,2.69,8,.77s2.25-5.16,1.65-7.78c-.89-3.86-2.52-7.54-3.81-11.3-2.14-6.26-3.69-12.58,0-18.77,1-1.6,2.27-5.06,4.75-.89,6.69,11.26,9.65,11.72,19.79,3.07,4.34,8.08,5.64,17,7.28,25.74.94,5.05,1.77,10.14,3.52,15,2.85,8,6.76,10.87,15.31,10.74,14.37-.23,28.52.4,41.86,6.76,14.55,6.94,27.28,16.31,38.91,27.41,11.22,10.71,21,22.7,31.07,34.4,10.51,12.2,24.08,17.53,39.58,19.37,18.06,2.14,36.08,4.72,54.24,5.92,2.12.14,2.68,1.4,3.41,3,2.41,5.27,3,10.84,3.05,16.52s0,11.65,0,17.47c.19,22.11.3,44.22.7,66.33.07,4.32-1.41,5-5.23,4.32-8.31-1.58-16.67-2.93-25-4.2-2.8-.42-3.95-1.47-3.68-4.49.57-6.45.8-12.94,1.15-19.41.19-3.42,1.52-3.37,3.95-1.56,1.87,1.39,3.91,5.15,6.45,1.68,2.33-3.19-1.2-5-3.25-6.74-13.73-11.25-30.06-15.68-47.26-18-20.74-2.8-41.43-1.71-62.18-.18-23.21,1.71-44.28-4.81-63.83-17.14-20.62-13-39.09-28.7-57-45.11-6.26-5.74-12.51-11.44-21.53-12.62-5.11-.67-9.44.67-12.23,4.86-4.39,6.61-11,8.74-18.16,10-2.68.47-4,.3-3.13-3.23,1.37-5.85-.82-10-5.89-12.29-2-.91-4.21-1.2-3.62-4.3.52-2.76,1.32-5,4.46-5.88a94.74,94.74,0,0,0,11.72-4.14c4.06-1.78,7.48-4.55,8.58-9.13,1.45-6.08-1.68-11.11-8.12-13.61-8.7-3.36-17.93-3.15-27-4C169.2,621.1,167.5,620.58,164.91,617.29Z" transform="translate(-92.68 -58.44)"/><path class="cls-3" d="M742.9,765.8a122.19,122.19,0,0,0-20,6.71c-2.08.89-3.29.6-4.55-1.28-12.18-18.05-25.14-35.58-36.61-54.11-6.84-11-9-23.47-9.79-36.17a168,168,0,0,0-6.55-38.19c-1-3.41,0-4.67,2.67-6.12,12.74-6.86,25.07-14.39,35.9-24.08,8.93-8,15.64-17.3,19.1-29.13,6.41-22,16.6-42.07,29.83-60.87,5.22-7.41,11.43-12.5,18.88-16.95,10.42-6.22,20.43-13.11,30.41-20,7.75-5.37,10.17-12.32,7.91-21.19q-2.88-11.32-5.88-22.64c-1.47-5.55,1.45-9.57,4.56-13.57,1.15-1.48,2.21-.6,3.47-.13,6.93,2.58,12-.5,12.49-7.83.18-2.89,1.15-3.71,3.9-3.56,5.75.31,9.67,3.93,10,10.28.32,5.47,0,11,0,16.46,0,4.32.29,8.76,5.28,10.16s8-2.07,10.26-6c4.16-7.2,6.36-15.37,11.19-22.24,2.2-3.13,4.7-5.53,8.91-5.43,2.46.05,3.87.5,4.37,3.42,1,5.81,3.69,8.17,9.83,8.59,3.35.23,3.14,1.49,1.87,3.62-2.93,5-7.61,8.32-11.46,12.43s-6.28,8.92-4.6,14.92c1.61,5.77,5.46,7.65,11,5.11,4.49-2,7.75-5.68,11.15-9.06,3.07-3,5.87-6.36,8.84-9.49a11.47,11.47,0,0,1,7.92-3.71c3.7-.23,6.48-.52,6.78,4.94.25,4.76,4.12,7.54,9.2,7.15,4.83-.37,4.91,1.92,3.56,5.42-2,5.11-6.41,7.44-10.9,9.67-6.38,3.18-13.52,4.79-19.28,9.23a29,29,0,0,0-5.18,4.63c-3.88,4.87-2.34,10.48,3.3,13,5,2.24,10.4,1.94,15.58,3a41.72,41.72,0,0,1,5.85,1.14c2.61.95,4.48,1.92,1.26,5-4.58,4.45-4.52,9.23-.21,14,2,2.23,1,3-.86,4-6.8,3.52-13.93,4.09-20.53.24-10.84-6.31-18.06-2.26-22.16,7.91-6.28,15.56-12.3,31.21-20.23,46.05q-9.54,17.82-20.78,34.61c-9,13.48-21.75,22.16-36.21,28.73-19.36,8.79-39.55,15.63-58.62,25.08-17.38,8.62-33.65,18.81-47,33.22a25.24,25.24,0,0,0-5.19,9c-.67,1.87-.29,3.35,1.5,4.17s3.33-.05,3.91-1.87c1.34-4.24,3.17-2.76,5.51-.81,6.95,5.79,12.7,12.67,18.26,19.73A306.64,306.64,0,0,1,742.9,765.8Z" transform="translate(-92.68 -58.44)"/><path class="cls-3" d="M739.22,530.81a68.5,68.5,0,0,0-10.75-13.14c-1.85-1.77-3.8-3.13-6-1s-.74,4.19.94,6l4,4.29-34.63-2.29c4.27-1.31,7.5-2.1,10.58-3.28,20.38-7.76,30.54-23.64,34.39-44.19,6.4-34.16-1.37-65.83-17.31-96-3.4-6.45-6.46-13.09-9.52-19.71-8.5-18.35-20.65-33.65-37.47-45a53.31,53.31,0,0,0-26.53-9.17c-16.06-1.08-28.54,8.21-35,25.62a79.35,79.35,0,0,0-4.72,27.31c-.13,23.46,0,46.92,0,70.38v6.88c-3.45-6.82-5.9-12.55-9.73-17.52-9.32-12.11-21.75-19.27-36.3-23-18.28-4.73-36.65-5.85-55.08-.87-24.59,6.64-43.46,30.75-43.94,56.18-.12,6.62-.59,13.28.94,19.91-3-3-4.17-6.87-5.74-10.49-10.32-23.79-21.2-47.3-34.05-69.85a100,100,0,0,0-12.35-17.48C399.85,362,393.09,358.91,376.4,358.6c8.89-6.89,18.37-12,27.55-17.54,11.51-7,23.17-13.73,31.62-24.66a55.39,55.39,0,0,0,11.64-27.58c.14-1.15,0-2.67,1.09-3.15,1.65-.69,2.09,1.24,2.93,2.06,1.65,1.61,3.08,3.45,5.12,5.78,3.86-8.5,6-17.47,12.59-25-.49,5.92-1.29,11.07.06,16.22.84,3.19,1.73,5.21,5.71,3.66a11.81,11.81,0,0,1,7.37.08c-4.95,4-10.24,6.85-14,11.44s-6.36,9.65-5.62,16.19c4.21-1,7.44-3.38,11-5,20.19-9.09,41.4-13.44,63.42-15.24,23.85-1.94,47.68-3.81,71.6-3.45a297.52,297.52,0,0,1,42.08,3.72c18.94,3,32.57,13.12,43.41,28.67,18,25.81,31.46,53.77,41.85,83.33,7.47,21.25,14.3,42.68,18.47,64.87a101.53,101.53,0,0,1,1.37,28.68,29.36,29.36,0,0,1-5.32,13.81C746.81,520.53,743.13,525.44,739.22,530.81Z" transform="translate(-92.68 -58.44)"/><path class="cls-4" d="M649.68,835.63c-12.06-12.32-27.16-17.55-42.4-22.37-29.72-9.4-60.36-14.49-91.17-18.6-3.56-.48-4.22-1.72-4.22-4.93q.06-33.69-.22-67.38c-.1-12.9,1.32-26-3.83-38.81,9.95,0,19.3.49,28.57-.1,17.28-1.11,34.85-.22,51.48-6.53a4.29,4.29,0,0,1,4.26.32c5.3,3.65,10.76,7.08,16.47,12.42H597.4c-1.19,0-2.4,0-3.1,1.16-.88,1.46.17,2.51,1,3.53,2.55,3.21,5.12,6.38,7.9,9.83-9.57,1.1-9.74,1.33-4.59,9.08,3.67,5.53,2.59,11.45,1.93,17.36-.25,2.27-1.63,4.89,1.62,5.81,3.48,1,4.1-1.9,4.71-4.34a35.21,35.21,0,0,0,1.22-11.85c-.27-2.92.78-3.66,3.57-3.67s6.49,1.51,7.93-.95c1.79-3.06-1.69-5.68-3.19-8.32s-3.34-4.88-5.65-8.18c2.95,0,5.31,0,7.67,0,2,0,4.09-.16,5-2.39.87-2-.43-3.5-1.57-4.91-5.1-6.31-11.67-10.8-18.52-15-1.8-1.09-3.92-1.73-5.49-3.76,20-9.09,39-19.9,58.26-30,2.9-1.53,3.22.07,3.81,2.14a151,151,0,0,1,5.78,34.34c.9,19.51,6.72,37,18.39,52.79,9.68,13.1,18.44,26.86,27.83,40.18,2.14,3,2.2,4.25-1.3,6.2-19.45,10.86-37.25,23.83-51.23,41.48A107.51,107.51,0,0,0,649.68,835.63Z" transform="translate(-92.68 -58.44)"/><path class="cls-5" d="M410.69,195.69c8.22,6.39,16.37,12.07,25.4,16.33a71.81,71.81,0,0,0,22.8,6.78c1.85.2,3.37.62,4.59,2.37,11.9,17,23.6,34.15,32.27,53.12,1.23,2.69,2.07,5.55,3.24,8.77-7.66-.88-14.83-2.47-22.13-1.58-2.78.34-1.79-1.83-1.82-3a83.59,83.59,0,0,1,1.1-17.38c.57-3.16-.91-3.59-3.45-2.83a18.32,18.32,0,0,0-9.87,7.2A55.38,55.38,0,0,0,455.77,278c-1.08,2.87-2,2.84-3.84.57-2.88-3.61-6-7-9.44-11-1.48,5.53-.64,10.64-1,15.61-1.31,19.11-10.78,33-26.48,43.12-12.94,8.33-26.13,16.29-39,24.7-14.51,9.48-25,22.45-33,37.85-9.76,18.79-23.56,34.43-39.91,47.87-2.56,2.1-3.76,1.54-5.61-.92a406.5,406.5,0,0,0-49.79-55c-2.65-2.44-3.48-5.13-4.25-8.49-2.29-9.86.9-15.48,10-20.71,17.56-10.12,32.43-23.75,42.94-41.5a59.2,59.2,0,0,0,8.37-23.26c.39-3.32,1.9-4.64,5-5.66,26.24-8.73,50.52-21,71.14-39.83C394.58,228.76,405,214,410.69,195.69Z" transform="translate(-92.68 -58.44)"/><path class="cls-5" d="M625,826a150.66,150.66,0,0,0-36.75,28.17,167,167,0,0,0-16.93,19.62c-2.5,3.53-4.89,4.34-9.12,3.33-27.44-6.55-54.68-6-80.31,6.49-9.11,4.44-14.06,3.89-21.67-2.91-21.71-19.38-48.23-25.66-76.85-24.06a154.46,154.46,0,0,0-40,7.81c-2.41.8-3.46,1.07-3.56-2.15-.51-16.3-6-30.22-20.17-39.55-1.74-1.14-1-2.11-.4-3.29,6-12.38,11.85-24.85,18.08-37.11,3.32-6.53,9.72-9.12,17.85-7.8,14.59,2.37,29.15,4.91,43.73,7.3q50.64,8.29,101.3,16.52c36.47,5.89,73.15,10.73,108.55,21.9C613.75,821.9,618.67,823.81,625,826Z" transform="translate(-92.68 -58.44)"/><path class="cls-5" d="M508.37,278.73c8.4-12.93,16.57-26,23-40,4.11-8.91,8-17.94,8.68-27.86.29-3.91,2.67-2.5,4.53-2.29,12.69,1.43,25.22,1,37.48-2.93,18.11-5.75,31-17.47,39.33-35,6.86,9.46,13.75,18.36,21.92,26.18,6.64,6.35,13.71,12.1,22.09,16,15,7,29.1,5.74,41.56-5.61,3-2.7,3.61-1.76,4.88,1.18,8,18.55,11.11,38.17,12.89,58.07.57,6.42,1.42,12.86.91,19.38-1.79.48-2.8-.9-4-1.59-24.57-14-51.09-21.66-79.18-24.14-44.75-3.95-87.89,3.71-130.13,18C511.17,278.5,510,279.57,508.37,278.73Z" transform="translate(-92.68 -58.44)"/><path class="cls-6" d="M471.15,458.81c.26-16.28,4-31.25,16.45-42.83,8-7.38,17.71-11.1,28.18-12.67,20.33-3,40.16-1.2,58.45,8.82,14.44,7.91,22.45,20.8,25.61,36.76.81,4.12.36,7.39-4.88,9.12-6.92,2.29-10.38,8.45-12.86,15s-3.24,13.52-5.14,20.21c-3.84,13.57-10.19,25.26-25.22,28.73-20,4.6-38.1,1.49-51.92-15.07-6.24-7.47-8.64-16.67-9.69-26.23-.66-6-4.2-9.39-10-9.79-8.9-.62-8.9-.62-9-9.53Z" transform="translate(-92.68 -58.44)"/><path class="cls-5" d="M789.72,855.94c-10.49-17.3-25-19.86-43.07-14.28-3.1,1-4.54.59-6.59-1.79-13.19-15.32-30.34-25-48.31-33.51l-5.8-2.77c-.13-.06-.21-.25-.61-.79,14.34-10.93,29.09-21,46.44-26.8a410.68,410.68,0,0,1,92.72-19.79c10.77-1,17.72,3.11,23.15,11.77,8.37,13.34,13.57,28,18.07,42.93,1,3.48-1.51,3-3.2,3.34a127.32,127.32,0,0,0-55.36,24.68A112.23,112.23,0,0,0,789.72,855.94Z" transform="translate(-92.68 -58.44)"/><path class="cls-7" d="M612.3,409.46c.48-16.95-.55-33.91.59-50.85a58,58,0,0,1,5.46-21.07c7.92-16.69,21.55-22.88,39.43-18,10.89,3,19.89,9.08,27.77,16.9a105.46,105.46,0,0,1,22.89,33.52c5.89,13.71,13.74,26.51,18.65,40.69,7.39,21.36,9.28,43.11,4.74,65.23-5.48,26.66-23.4,41-50.63,43C639.75,522,618.9,492.23,614,462.23,611.13,444.73,612.86,427.05,612.3,409.46Z" transform="translate(-92.68 -58.44)"/><path class="cls-7" d="M335.91,480.2c1.14-25.27,4.21-48.75,12.54-71.27,3.65-9.89,8.38-19.21,16-26.72,12.34-12.14,25.32-12.56,38.49-1.36a69.48,69.48,0,0,1,14.54,17.6c16.67,27.85,30.29,57.27,42,87.41,11.43,29.39,3,55.84-18.19,77.8-20.3,21-67.88,22.34-89.05-13-9.8-16.36-14.15-34.26-15.83-53C335.87,491.41,335.24,485.09,335.91,480.2Z" transform="translate(-92.68 -58.44)"/><path class="cls-4" d="M379.79,614.88A223.05,223.05,0,0,0,415,634.65c17,7.7,35.08,11.15,53.14,14.89,14.83,3.08,29.37,7.37,44.4,9.59,13.93,2,27.78,1.59,41.62-.14,40.88-5.13,75.12-24.59,105.93-50.57a549.66,549.66,0,0,0,68.15-69.23c1.29-1.55,2.26-5.31,4.77-3.88,2.94,1.68.21,4.48-.71,6.55-6.33,14.24-12.79,28.38-16.89,43.53-2.46,9.12-9.25,15.63-16.1,21.76-11.46,10.25-24.34,18.46-37.87,25.67-18.73,10-37.65,19.59-56.3,29.71-17.47,9.49-36.21,13.38-55.85,14-14.62.48-29.23,1.67-43.87.81a631.41,631.41,0,0,1-68.16-7.71c-11.51-1.94-20.58-7.87-28.09-16.6-9.21-10.71-18.52-21.33-27.83-32A6.3,6.3,0,0,1,379.79,614.88Z" transform="translate(-92.68 -58.44)"/><path class="cls-8" d="M753.87,240.13c2,9.2,3.91,18.4,5.92,27.58,8,36.41,12.32,73.26,14.19,110.45,1.66,33.11,1.38,66.08-6.24,98.58-1,4-2.25,8-3.42,12-.22.75-.62,1.45-1.13,2.64C758.31,448.8,744.48,409.47,727.8,371a18.58,18.58,0,0,1-1.69-5.7c-1.61-21.8-1.86-43.56,6-64.41,4.38-11.63,10.49-22.58,14.14-34.54C748.84,257.76,751.21,249.14,753.87,240.13Z" transform="translate(-92.68 -58.44)"/><path class="cls-9" d="M660.94,578.61c-10.2-1.4-12.79.89-12.52,10.84.11,3.94.91,7.86,1.45,12.3-8.6-5.39-17.82-7.86-27.43-9-6.9-.78-8,.27-8,7.07q0,14.24,0,28.46c0,2,0,3.81-2.38,4.91s-3.41-.42-4.81-1.46c-8.64-6.49-17.32-12.93-26.7-18.36-6.84-4-11.39-2.56-14.71,4.67-3,6.64-3.4,13.81-3.77,20.95,0,1,0,2,0,4.1-6-6.55-12.34-11.17-18.34-16.22s-7.87-4.67-11.92,2c-3.44,5.69-5.88,11.85-8.82,18.65-5-9.77-10.3-18.58-17.25-26.28-4.27-4.75-6.35-5.05-11.31-1.11-6.24,4.95-10.94,11.46-16.82,17.51-.73-3.87-1.14-7.3-3-10.27a8.81,8.81,0,0,0-7.79-4.6c-2.33,0-2.66-1-2.69-3-.09-6.41,2.31-12,5.36-17.4,1.19-2.11,2.6-1.4,4.18-.82a54.83,54.83,0,0,0,15.15,2.79c6.88.49,9.75-2.11,10.42-8.93.19-2,.54-4,.74-5.93.83-7.91.84-8.16,9-7.67,18.15,1.1,34.68,7.2,50,16.87,3.09,2,6.16,3.93,9.25,5.89,2,1.28,4.32,2.7,6,0,1.59-2.58-.75-3.81-2.58-5-2.66-1.7-5.28-3.47-8-5.06-2-1.15-2.1-2.15-.41-3.72,12.69-11.72,26.56-21.55,43.13-27.13,2.33-.78,3.91-.54,5.54,1.46a56.87,56.87,0,0,0,6.92,7.13c4.39,3.77,9,3.82,13.49.09a66.56,66.56,0,0,0,7.79-7.69c1.82-2.12,3.45-2.51,6-1.38C653,566.38,657.71,571.4,660.94,578.61Z" transform="translate(-92.68 -58.44)"/><path class="cls-5" d="M820.36,708.53c-3.27-22.44-3.27-43.41.27-64.37.26-1.54.52-2.85,1.94-3.79,15.69-10.33,24.87-26,34.08-41.63a343.45,343.45,0,0,0,26.85-57.07c1.3-3.55,2.65-7.12,5.76-9.88,4.29,12.44,12.15,22.19,21.45,30.92,1.48,1.38,2.63,2.34,1.11,4.83-11.16,18.31-11.86,38.29-8.8,58.77a117.33,117.33,0,0,0,5.13,21.25c1.07,3.07.53,3.91-2.86,3.94-18.28.14-35.52,4.32-51.13,14.15-15.3,9.63-25.72,23.26-32.44,39.89C821.48,706.11,821.21,706.67,820.36,708.53Z" transform="translate(-92.68 -58.44)"/><path class="cls-8" d="M229,372.6a369.88,369.88,0,0,1,48.68,48.18,449.4,449.4,0,0,1,39.88,54.73c1.07,1.73,2,3.36,1.66,5.54-3.86,24.11,1.34,47.1,8.65,69.83,3.74,11.61,7.53,23.21,10.71,35.44-1.75-1.75-3.54-3.45-5.23-5.25-20.34-21.58-36.28-46.2-50-72.35-17-32.43-30-66.51-41.92-101.07C237.6,396.39,233.52,385.2,229,372.6Z" transform="translate(-92.68 -58.44)"/><path class="cls-5" d="M212.47,716.4c8.46-12.26,9.53-25.67,8.55-39.49-.45-6.4,2.28-8.9,8.59-7.25,5.42,1.43,9.79,4.74,13.88,8.49,21.45,19.68,43.29,38.89,69,53,3.68,2,7.47,3.66,9.14,7.89.06.15.25.24.31.39.63,1.52,2,3.22,1.19,4.66-1,1.84-3.05.47-4.51.3-20.73-2.45-40,1.47-57.58,12.89-2.05,1.34-2.9,1.53-3.44-1.33-4.2-22.3-16.41-34-39.7-38.42C216.3,717.18,214.68,716.84,212.47,716.4Z" transform="translate(-92.68 -58.44)"/><path class="cls-10" d="M506.4,552.52c7.84,8.53,16.42,14.28,26.68,17.35,5.82,1.74,7.53.65,8-5.41.5-6.67,3.06-12.86,4.42-19.33.62-2.93-.06-6,1-8.81,2-.14,2,1.49,2.43,2.59A58,58,0,0,0,556.21,553c5.22,7,11.37,7.46,17.66,1.5,6.12-5.8,10.13-13,14.4-20.94,5.53,7.65,10.73,14.8,15.88,22,1.4,1.94-.06,2.6-1.61,3.15-17.26,6.06-31.71,16.5-44.8,29-1.68,1.6-2.92,1.5-4.77.56-15-7.6-30.78-12.19-47.68-12.48-2.3,0-3.48-.69-3-3.23C503.66,566.22,504.91,559.9,506.4,552.52Z" transform="translate(-92.68 -58.44)"/><path class="cls-11" d="M409.69,585.83c-10.56,5.81-19.95,10.62-28.68,16.62-.28-.51-.46-.69-.42-.79.92-2.63,4-5.85-.08-7.7-4.47-2-5.42,2.57-6.75,5.36-1.91,4-1.4,8.45-1.57,12.7-1.82.82-2.46-.78-3.41-1.51-2.74-2.15-5.09-5.07-8.15-6.51-8.56-4-12.26-11.21-15-19.7-7.15-22-15.09-43.79-19.71-66.56-2.11-10.37-2-20.77-.9-31.21.79-7.54,1.59-15.08,3.05-22.59,0,3.79.11,7.58,0,11.36-.91,25.95,2.69,51,14.8,74.33,10,19.21,25.19,31.91,47,35.61C395.94,586.26,402.1,585.83,409.69,585.83Z" transform="translate(-92.68 -58.44)"/><path class="cls-11" d="M545.17,529.1C512.41,536.66,482,549.79,451,565.2c15.71-21.78,23.25-44.63,19-71.9,3.56,5.69,6.13,10.27,9.43,14.39,10.31,12.88,24.37,17.65,40.11,19.08C528.1,527.56,536.61,529,545.17,529.1Z" transform="translate(-92.68 -58.44)"/><path class="cls-3" d="M565.41,526c21-15.45,35.2-34.87,43.6-60.27,6.32,27,19.08,47.49,45.22,57.39C624.45,522.63,595.17,521.57,565.41,526Z" transform="translate(-92.68 -58.44)"/><path class="cls-5" d="M593.61,530c18.6-1.77,36.44-1,54.29-.33,1.91.08,2.2.91,1.84,2.5a63.29,63.29,0,0,1-20.92,35.26c-3,2.57-5.39,1.26-7.74-1.16C610.61,555.51,602.46,543,593.61,530Z" transform="translate(-92.68 -58.44)"/><path class="cls-5" d="M500.37,550.06c-2,11.48-3.84,22.07-5.58,32.67-.67,4.1-1.14,8.23-1.51,12.36-.24,2.54-1.48,3.46-3.9,3.33-16.58-.89-29.12-8.24-37-23.08-.73-1.37-2-2.67.56-3.91C468.25,564,483.55,556.58,500.37,550.06Z" transform="translate(-92.68 -58.44)"/><path class="cls-10" d="M450.75,585.36a63.92,63.92,0,0,0,13,11.58c1.72,1.1.7,2.34,0,3.4a36.12,36.12,0,0,0-5.56,21.77c.37,5.52-4.59,7.47-7.29,11.6-2.68-5.24-4.09-10.4-8.14-14.15-3.14-2.91-6.22-3.72-9.8-1.29-4.1,2.79-8.12,5.7-12.13,8.62-1.51,1.1-2.76,2.15-4.9,1.1-10.41-5.12-20.8-10.25-30.31-17-2.38-1.69-2-2.61-.08-3.91,1.51-1,3.17-1.81,4.63-2.89,2.33-1.71,4-1.24,5.95.85,4.5,4.88,9.36,9.41,15.48,12.3a21,21,0,0,0,10,2.36c4.22-.17,6.65-2.1,6.53-6.37-.08-3.39,1-4.17,4.08-2.79,3.45,1.56,7.16,1.26,10.8,1.09,5.63-.25,8.95-4.1,7.87-9.69S450.44,591.06,450.75,585.36Z" transform="translate(-92.68 -58.44)"/><path class="cls-12" d="M841.15,684.92v67.13c-3.17-.85-6.1-2-9.3-1.76-2.15.18-2.51-1.79-3.28-3.2-5.79-10.65-7.74-21.45-3.34-33.36C828.94,703.69,833.35,694.25,841.15,684.92Z" transform="translate(-92.68 -58.44)"/><path class="cls-5" d="M604,637.16A207.7,207.7,0,0,1,572.65,649c-3.53,1-4.75.63-4.68-3.25.16-8.12,0-16.26,2.9-24,1.87-5,3-5.3,7.53-2.56A239.21,239.21,0,0,1,604,637.16Z" transform="translate(-92.68 -58.44)"/><path class="cls-12" d="M703,818.82a376.86,376.86,0,0,1-46.86,18.61c3.06-7.88,7.77-14,13-19.44C681.6,805.06,677,806.5,692,813.3,695.47,814.86,698.81,816.7,703,818.82Z" transform="translate(-92.68 -58.44)"/><path class="cls-5" d="M479.54,645.37c5.91-7.31,11.35-13.76,17.62-19.46,1.32-1.2,2.43-2.63,4.31-.35,6.79,8.18,12.64,16.89,16.78,27.36C504.91,651.78,492.53,648.57,479.54,645.37Z" transform="translate(-92.68 -58.44)"/><path class="cls-10" d="M653.08,543.83c1.56,5.44,2.54,9.74,4,13.86,3.45,9.58,8.65,10.74,15.68,3.58a68.16,68.16,0,0,0,6.69-8c2-2.78,3.62-5.83,6.08-9.87.39,4.85.36,8.58,1.38,12.15,1.37,4.76,3.51,5.8,8,3.65,1.62-.77,3.27-2.22,4.79-.1,1.7,2.36-1,3.06-2,4.23-1.76,2.13-3.34,3.92-7.07,2.62-14.23-5-17.46-2.28-16.87,12.88.05,1.46,2.62,4.06-1,4.79-2.84.57-3.53-1.59-4.39-3.68-4-9.64-9.82-17.69-19.67-22.1-1.54-.69-2.12-1.49-1.33-3C649.09,551.51,650.81,548.21,653.08,543.83Z" transform="translate(-92.68 -58.44)"/><path class="cls-5" d="M444.73,575.69c0,9.62-.13,18.07.08,26.51.07,3.16-1.53,3.52-3.95,3.62-7.75.32-19.49-7.07-23.14-14.4-.78-1.56-.2-2.09.92-2.66Z" transform="translate(-92.68 -58.44)"/><path class="cls-13" d="M649.06,609.1c-9.15,6.92-18.11,13.6-28.61,19.37,0-9.71,0-18.63,0-27.55,0-1.75.61-2.41,2.36-2.1C632.14,600.47,641.38,602.37,649.06,609.1Z" transform="translate(-92.68 -58.44)"/><path class="cls-13" d="M684.1,530.24c-4.16,12.11-9.77,21.8-18.89,29.84-4.55-7.86-5.65-16.25-7.23-24.46-1.11-5.81-1-5.64,4.9-5.44C669.65,530.41,676.44,530.24,684.1,530.24Z" transform="translate(-92.68 -58.44)"/><path class="cls-14" d="M540.08,540.8c-1.61,7.11-3.32,14.2-4.77,21.34-.43,2.15-1.47,1.77-2.77,1.27A55,55,0,0,1,511.32,549c-1.49-1.64-1.59-2.61.93-3.36,8.21-2.44,16.38-5.07,24.55-7.64C539.44,537.14,540.64,537.86,540.08,540.8Z" transform="translate(-92.68 -58.44)"/><path class="cls-5" d="M560.33,651.33c-10.11,2.07-19.85,2.41-29.61,2.59-2.56.05-3.32-.75-2.35-3.17,2.48-6.14,4.88-12.31,8.26-18,.77-1.32,1.27-2.73,3.23-1.06C546.9,637.66,554.65,642.9,560.33,651.33Z" transform="translate(-92.68 -58.44)"/><path class="cls-15" d="M922,392.79c-4.7,3.39-8.79,5.2-12.12,8.2-6.92,6.25-12.34,13.49-15.41,22.32-1.19,3.42-3.54,4.08-6.64,3.58-3.27-.51-4.24-2.7-4.29-5.72-.1-5.45,3.11-9.39,6.22-13.23C897.64,398.14,908.15,393.54,922,392.79Z" transform="translate(-92.68 -58.44)"/><path class="cls-13" d="M582.94,530.29c-3.81,7.81-7.74,14.26-13,19.88-3.07,3.33-5.84,3-8.58-.52a48.76,48.76,0,0,1-6.83-13.16c-.51-1.37-.44-2.32,1.15-2.54C564.5,532.74,573.3,531.58,582.94,530.29Z" transform="translate(-92.68 -58.44)"/><path class="cls-12" d="M604.5,847.32c8.44-7.05,16.28-12.51,25-16.6,3.8-1.77,6.29,1.24,8.87,3.08s6.35,3.65,5.89,6.67c-.3,2-4.75,2.14-7.42,2.77C626.67,845.6,616.45,847.72,604.5,847.32Z" transform="translate(-92.68 -58.44)"/><path class="cls-15" d="M236.69,504.13c6.85,1.07,11,4.82,14.73,9.14a61.71,61.71,0,0,1,10.2,17.49c1.36,3.37.36,6-2.68,7.51-3.25,1.58-4.73-.95-6.06-3.4-4.66-8.56-9.38-17.09-14-25.66C238.08,507.79,237.58,506.23,236.69,504.13Z" transform="translate(-92.68 -58.44)"/><path class="cls-15" d="M819.72,379.78c0,14.22,0,27.59,0,41a3,3,0,0,1-2.69,3.11,2.74,2.74,0,0,1-3.48-2.07c-2.31-10.75-6.45-21.46-1.06-32.48C814.11,385.92,815.87,382.65,819.72,379.78Z" transform="translate(-92.68 -58.44)"/><path class="cls-15" d="M127.5,611.47c5.05-7.54,11.77-10.64,19.59-11.63,5.67-.72,11.22.53,16.7,1.87,3.74.91,4.53,3.9,3.81,7-.79,3.37-3.77,3.26-6.46,2.63C145.09,607.59,145.1,607.57,127.5,611.47Z" transform="translate(-92.68 -58.44)"/><path class="cls-15" d="M173.32,694.39c-3.83-13.33-4.41-16.25,5.66-25.51,3.56-3.28,8-3.15,10.41.29,2.64,3.76.7,6.49-2.58,8.62-3.86,2.51-6.4,6.13-8.77,10C176.68,689.94,175.05,692,173.32,694.39Z" transform="translate(-92.68 -58.44)"/><path class="cls-15" d="M160.59,547.14c10.5-2,19,.11,26.95,4.74,5.51,3.19,8,7.8,7,13.06-.27,1.5-.64,3-2.26,3.56a3.46,3.46,0,0,1-3.95-1.44,56.29,56.29,0,0,0-12.07-11.65A87.72,87.72,0,0,0,160.59,547.14Z" transform="translate(-92.68 -58.44)"/><path class="cls-15" d="M955.25,534.5A76.21,76.21,0,0,0,929.94,521c-3-.93-5.35-2.43-4.33-5.95s4.29-5.56,7.32-4c9.55,4.79,18.15,10.91,22.47,21.33C955.56,532.78,955.35,533.33,955.25,534.5Z" transform="translate(-92.68 -58.44)"/><path class="cls-13" d="M419.45,613.69c-8.12-2.2-14.15-7.57-19.83-13.4-1.14-1.17.23-1.65,1-2.09,2.9-1.56,5.87-3,8.69-4.67,1.3-.76,2-.56,2.82.56,3.72,5.07,7.46,10.12,9.63,16.1C422.55,612.29,423,614.31,419.45,613.69Z" transform="translate(-92.68 -58.44)"/><path class="cls-15" d="M961.07,435.08l-18.63,7.7c-3.15,1.31-5.72,3.11-7,6.53-1.19,3.1-3.95,3.73-7,3.54-2.23-.14-3.23-1.72-3.59-3.55-.58-2.94,1.39-4.44,3.64-5.82,8.58-5.24,17.55-9.28,27.81-9.56a27.77,27.77,0,0,1,4,.29C960.46,434.23,960.65,434.62,961.07,435.08Z" transform="translate(-92.68 -58.44)"/><path class="cls-13" d="M692.48,553.8c-.69-7.65-2.56-14.26-1.45-20.33,1-5.32,6.76-.46,10.23-1.66,1.33-.46,3.33-.26,2.5,2.13C701.39,540.75,699,547.57,692.48,553.8Z" transform="translate(-92.68 -58.44)"/><path class="cls-16" d="M671.15,589.85l-13.92,12.53A32.56,32.56,0,0,1,654.5,587c.13-2.62,1.22-3.31,3.83-2.47C662.61,585.92,666.09,589,671.15,589.85Z" transform="translate(-92.68 -58.44)"/><path class="cls-16" d="M471,643.3c-4.71-.91-9.34-1.85-14-2.67-2.26-.4-2.36-1.45-1.14-3a66.64,66.64,0,0,1,4.73-5.71c1.86-1.89,4.09-3.82,6.93-2.79,2.61,1,3.11,3.74,3.48,6.19A20.32,20.32,0,0,1,471,643.3Z" transform="translate(-92.68 -58.44)"/><path class="cls-16" d="M445.28,637.76c-7-1.26-13.25-3.65-20.73-6.08l10.87-7.91c1.83-1.33,3-.35,4.05,1.15A34.54,34.54,0,0,1,445.28,637.76Z" transform="translate(-92.68 -58.44)"/><path class="cls-17" d="M706.15,549.85c1.61-6.17,2.79-10.78,4-15.37.25-.94.7-2,2-1.86,3.85.39,7.83-.55,12,1C719.37,540,713.49,544.63,706.15,549.85Z" transform="translate(-92.68 -58.44)"/><path class="cls-18" d="M689.22,571.93l-9,8.76c-.34-3.75-1.64-7.83.5-10.17C682.56,568.48,686.17,570.62,689.22,571.93Z" transform="translate(-92.68 -58.44)"/><path class="cls-1" d="M221,630.14c0-17.7,13-31.53,29.75-31.59,16.91-.06,30.39,13.85,30.53,31.52.14,17-13.76,31.45-30.23,31.49S221.06,647.57,221,630.14Z" transform="translate(-92.68 -58.44)"/><path class="cls-1" d="M856.19,532.88C840.38,533.43,824,521,824,500.73c0-19.41,16-32,32-31.91,17.64.13,32.16,14.26,32.31,31.74A32.08,32.08,0,0,1,856.19,532.88Z" transform="translate(-92.68 -58.44)"/><path class="cls-19" d="M570.88,382.7c-1,3.26-3.14,3.93-6.17,2.67-10-4.18-20.54-5-31.27-4.43-15.66.89-30.21,5.79-44.25,12.39-5.1,2.4-10,5.29-14.92,8-2.19,1.21-4.38,2.09-6-.57s.11-4.36,2.25-5.63c18.87-11.23,38.78-19.32,61-21.36a81.47,81.47,0,0,1,34.7,4.39C568.31,378.92,570.61,379.75,570.88,382.7Z" transform="translate(-92.68 -58.44)"/><path class="cls-19" d="M525.35,359.18A64.42,64.42,0,0,1,546.23,364c1.82.77,3.38,1.91,2.64,4.1-.87,2.6-3,2.23-5,1.44-18.66-7.64-34.95-2.36-50.16,9.06-.66.5-1.35,1-2,1.44-1.48,1.06-3,1.55-4.41,0s-.7-3,.52-4.37a51.07,51.07,0,0,1,13.4-10.2C508.65,361.38,516.68,359.63,525.35,359.18Z" transform="translate(-92.68 -58.44)"/><path class="cls-1" d="M619,438.21c.64-8.24-1-18.39.91-28.47a48.44,48.44,0,0,1,10.42-22.26c9-10.83,20.83-11.13,33.24-8.23,29,6.76,47.32,29.84,47.46,59.55.06,13.8-.35,27.54-4.88,40.79-5.33,15.62-14.4,23-30.76,23.45-19.76.5-36.76-6.23-49.62-21.77a28.42,28.42,0,0,1-6.82-19.76C619.17,454.37,619,447.22,619,438.21Z" transform="translate(-92.68 -58.44)"/><path class="cls-1" d="M356.32,479.26c.14-8.35,3.55-22.22,12.35-34.31,10.45-14.34,27.05-18.53,43.36-11.35,11.36,5,19.64,13.51,26.5,23.5,10.16,14.79,17.7,30.79,19.75,48.82,2.76,24.2-13.75,45.85-37.85,50.86-20.28,4.21-35.77-2.41-47.33-19.33C362.65,522.15,356.32,503,356.32,479.26Z" transform="translate(-92.68 -58.44)"/><path class="cls-20" d="M235.43,629.88c0-9.75,6.73-17.21,15.52-17.23s15.6,7.47,15.62,17.12-6.67,17.58-14.78,17.62C242.24,647.43,235.42,640.12,235.43,629.88Z" transform="translate(-92.68 -58.44)"/><path class="cls-20" d="M838.55,500.48c.08-9.68,8.34-17.82,17.83-17.57,9.94.26,17.42,8.32,17.29,18.63a17.37,17.37,0,0,1-17.55,17.24A17.84,17.84,0,0,1,838.55,500.48Z" transform="translate(-92.68 -58.44)"/><path class="cls-5" d="M659.77,411.93a18.16,18.16,0,0,1-3.4,11.36c-4.76,6.53-13.12,6.94-18.21.65-4.83-6-5.24-12.74-2.19-19.62,2.08-4.69,5.63-7.86,11.08-7.83s8.81,3.24,11,7.94A16.09,16.09,0,0,1,659.77,411.93Z" transform="translate(-92.68 -58.44)"/><path class="cls-5" d="M412.24,465c-.28,7.78-6.4,14.07-13.48,13.87-7.34-.21-13.15-6.94-12.89-14.95.26-8.21,6.18-14.24,13.73-14C406.9,450.12,412.54,456.84,412.24,465Z" transform="translate(-92.68 -58.44)"/></svg>